<svg version="1.1" id="Layer_1" xmlns="http://www.w3.org/2000/svg" xmlns:xlink="http://www.w3.org/1999/xlink" x="0px" y="0px"
	 width="100%" viewBox="0 0 272 288" enable-background="new 0 0 272 288" xml:space="preserve">
<path fill="#000000" opacity="1.000000" stroke="none" 
	d="
M182.925201,209.195618 
	C175.269867,211.297089 167.860733,212.313644 160.341263,212.331818 
	C136.676880,212.389008 113.012283,212.378647 89.347794,212.361771 
	C87.736694,212.360626 86.017982,212.726868 84.348175,211.442017 
	C84.840187,209.007324 87.011719,208.847900 88.791481,208.433945 
	C91.926315,207.704773 93.045204,205.862793 93.040924,202.702133 
	C92.991714,166.372177 93.007431,130.042068 93.070686,93.712120 
	C93.075859,90.741585 91.964584,89.037201 89.048820,88.345734 
	C87.200348,87.907372 84.997429,87.862045 84.191727,85.504379 
	C85.218491,83.225182 87.273964,83.786804 88.972595,83.784233 
	C112.470390,83.748650 135.971588,83.539536 159.464676,83.878082 
	C170.487625,84.036926 181.415909,85.576347 191.050842,91.783531 
	C204.375763,100.367958 206.572006,118.887634 195.522614,130.341263 
	C186.386765,139.811325 174.320404,142.290756 162.000839,144.068146 
	C161.180984,144.186432 160.347534,144.210373 159.488785,144.531281 
	C163.944763,144.674194 168.341919,145.207779 172.641357,146.307831 
	C176.991638,147.420883 181.344376,148.546539 185.634155,149.867645 
	C189.795486,151.149170 193.542908,153.284546 197.152603,155.749710 
	C213.385147,166.835434 211.305832,198.378952 188.939514,207.011642 
	C187.075195,207.731232 185.194336,208.407913 182.925201,209.195618 
M170.038788,194.459091 
	C173.874786,184.677399 173.698914,174.624771 171.912567,164.509567 
	C170.363602,155.738480 165.076141,150.438400 156.489365,148.152588 
	C148.472275,146.018387 140.250153,147.541641 132.173523,146.524780 
	C129.923386,146.241470 129.683456,147.976303 129.678543,149.880737 
	C129.633057,167.499695 129.596161,185.119705 129.340485,202.736267 
	C129.284317,206.606750 130.812042,208.242126 134.474457,208.370209 
	C138.956497,208.526947 143.439117,208.923767 147.917603,208.872986 
	C157.931549,208.759415 165.505371,204.563568 170.038788,194.459091 
M154.665985,141.414368 
	C161.339371,138.906647 165.605118,134.183517 167.915192,127.462448 
	C170.422455,120.167664 170.464371,112.668747 169.329636,105.272072 
	C167.895752,95.925537 161.503937,89.231003 153.280807,88.489120 
	C146.681091,87.893700 139.986679,88.316818 133.334579,88.348816 
	C130.724121,88.361366 129.411819,89.700844 129.416519,92.406258 
	C129.443741,108.046097 129.435852,123.686012 129.415283,139.325867 
	C129.412430,141.500412 130.220581,142.933044 132.560806,142.875168 
	C139.683960,142.698975 146.868500,143.514526 154.665985,141.414368 
z"/>
</svg>